# Blender v2.80 (sub 75) OBJ File: 'canoe_centered.blend'
# www.blender.org
mtllib sailing_canoe_canoe.mtl
o Cube_Cube.006
v 10.158974 2.303234 10.281837
v 10.158974 35.313278 10.281837
v 10.158974 2.303234 9.643284
v 10.158974 35.313278 9.643284
v 10.797527 2.303234 10.281837
v 10.797527 35.313278 10.281837
v 10.797527 2.303234 9.643284
v 10.797527 35.313278 9.643284
v -10.931892 1.337298 8.826450
v -10.931892 3.337297 8.826450
v -10.931892 1.337298 6.826449
v -10.931892 3.337297 6.826449
v 9.872027 1.337304 8.826368
v 9.872027 3.337304 8.826368
v 9.872027 1.337304 6.826367
v 9.872027 3.337304 6.826367
v -10.931892 1.337297 -5.337717
v -10.931892 3.337297 -5.337717
v -10.931892 1.337297 -7.337717
v -10.931892 3.337297 -7.337717
v 9.872027 1.337304 -5.337801
v 9.872027 3.337304 -5.337801
v 9.872027 1.337304 -7.337801
v 9.872027 3.337304 -7.337801
v -11.914463 -1.957778 15.962284
v -11.914463 2.802147 15.962284
v -11.914463 -1.957778 -14.607836
v -11.914463 2.802146 -14.607836
v -9.914464 -1.957777 15.962276
v -9.914464 2.802147 15.962276
v -9.914464 -1.957777 -14.607845
v -9.914464 2.802147 -14.607845
v 8.025676 -2.334890 20.676704
v 8.025676 2.397110 20.676704
v 8.025676 -2.334891 -18.271906
v 8.025676 2.397110 -18.271906
v 13.222810 -2.334888 20.676682
v 13.222810 2.397112 20.676682
v 13.222810 -2.334889 -18.271929
v 13.222810 2.397111 -18.271929
vt 0.941860 0.793361
vt 0.941860 0.000000
vt 0.956395 0.000000
vt 0.956395 0.793361
vt 0.985465 0.793361
vt 0.985465 0.000000
vt 1.000000 0.000000
vt 1.000000 0.793361
vt 0.985465 0.000000
vt 0.985465 0.793361
vt 0.970930 0.793361
vt 0.970930 0.000000
vt 0.956395 0.793361
vt 0.956395 0.000000
vt 0.557603 0.859628
vt 0.572138 0.859628
vt 0.572138 0.874975
vt 0.557603 0.874975
vt 0.941860 1.000000
vt 0.896336 1.000000
vt 0.896336 0.500000
vt 0.941860 0.500000
vt 0.452019 0.907696
vt 0.452019 0.859628
vt 0.497544 0.859628
vt 0.497544 0.907696
vt 0.850811 0.500000
vt 0.805286 0.500000
vt 0.805287 0.000000
vt 0.850811 0.000000
vt 0.896336 0.500000
vt 0.896336 0.000000
vt 0.941860 0.000000
vt 0.941860 0.500000
vt 0.850811 1.000000
vt 0.850811 0.500000
vt 0.896336 0.500000
vt 0.896336 1.000000
vt 0.759762 0.500000
vt 0.805286 0.500000
vt 0.805286 1.000000
vt 0.759762 1.000000
vt 0.759762 0.849120
vt 0.759762 0.897188
vt 0.714237 0.897188
vt 0.714237 0.849120
vt 0.805286 0.500000
vt 0.759762 0.500000
vt 0.759762 0.000000
vt 0.805286 0.000000
vt 0.850811 0.500000
vt 0.850811 0.000000
vt 0.896336 0.000000
vt 0.896336 0.500000
vt 0.850811 0.500000
vt 0.850811 1.000000
vt 0.668713 0.734720
vt 0.560366 0.734720
vt 0.560366 0.000000
vt 0.668713 0.000000
vt 0.759762 0.734720
vt 0.759762 0.849120
vt 0.714237 0.849120
vt 0.714237 0.734720
vt 0.560366 0.734720
vt 0.452019 0.734720
vt 0.452019 0.000000
vt 0.560366 0.000000
vt 0.668713 0.849120
vt 0.668713 0.734720
vt 0.714237 0.734720
vt 0.714237 0.849120
vt 0.668713 0.000000
vt 0.714237 0.000000
vt 0.236597 0.000000
vt 0.344308 0.000000
vt 0.344308 0.936088
vt 0.236597 0.936088
vt 0.559730 0.859628
vt 0.452019 0.859628
vt 0.452019 0.734720
vt 0.559730 0.734720
vt 0.668077 0.859628
vt 0.560366 0.859628
vt 0.560366 0.734720
vt 0.668077 0.734720
vt 0.118299 0.936089
vt 0.118299 0.000001
vt 0.000000 0.000000
vt 0.118298 0.000001
vt 0.118299 0.936089
vt 0.000000 0.936088
vt 0.543068 0.859628
vt 0.557603 0.859628
vt 0.557603 0.874975
vt 0.543068 0.874975
vt 0.543068 0.907696
vt 0.497544 0.907696
vt 0.497544 0.859628
vt 0.543068 0.859628
vt 0.714237 0.897188
vt 0.668713 0.897188
vt 0.668713 0.849120
vt 0.714237 0.849120
vt 0.714237 0.000000
vt 0.759762 0.000000
vt 0.344308 0.000000
vt 0.452019 0.000000
vt 0.452019 0.936088
vt 0.344308 0.936088
vn -1.0000 0.0000 0.0000
vn 0.0000 0.0000 -1.0000
vn 1.0000 0.0000 0.0000
vn 0.0000 0.0000 1.0000
vn 0.0000 -1.0000 0.0000
vn -0.0000 1.0000 0.0000
vn 0.5773 0.5773 -0.5773
vn -0.5773 0.5773 -0.5773
vn -0.5773 0.5773 0.5773
vn 0.5773 0.5773 0.5773
vn -0.5773 -0.5773 0.5773
vn -0.5773 -0.5773 -0.5773
vn 0.5773 -0.5773 -0.5773
vn 0.5773 -0.5773 0.5773
usemtl None
s off
f 1/1/1 2/2/1 4/3/1 3/4/1
f 3/5/2 4/6/2 8/7/2 7/8/2
f 7/9/3 8/10/3 6/11/3 5/12/3
f 5/12/4 6/11/4 2/13/4 1/14/4
f 3/15/5 7/16/5 5/17/5 1/18/5
f 11/19/2 12/20/2 16/21/2 15/22/2
f 15/23/3 16/24/3 14/25/3 13/26/3
f 13/27/4 14/28/4 10/29/4 9/30/4
f 11/31/5 15/32/5 13/33/5 9/34/5
f 16/35/6 12/36/6 10/37/6 14/38/6
f 19/39/2 20/40/2 24/41/2 23/42/2
f 23/43/3 24/44/3 22/45/3 21/46/3
f 21/47/4 22/48/4 18/49/4 17/50/4
f 19/51/5 23/52/5 21/53/5 17/54/5
f 24/41/6 20/40/6 18/55/6 22/56/6
f 25/57/1 26/58/1 28/59/1 27/60/1
f 27/61/2 28/62/2 32/63/2 31/64/2
f 31/65/3 32/66/3 30/67/3 29/68/3
f 29/69/4 30/70/4 26/71/4 25/72/4
f 32/73/6 28/74/6 26/71/6 30/70/6
f 33/75/1 34/76/1 36/77/1 35/78/1
f 35/79/2 36/80/2 40/81/2 39/82/2
f 37/83/4 38/84/4 34/85/4 33/86/4
f 35/78/5 39/87/5 37/88/5 33/75/5
f 40/89/6 36/90/6 34/91/6 38/92/6
s 1
f 8/93/7 4/94/8 2/95/9 6/96/10
f 9/97/11 10/98/9 12/99/8 11/100/12
f 17/101/11 18/102/9 20/103/8 19/104/12
f 27/61/12 31/64/13 29/105/14 25/106/11
f 39/107/13 40/108/7 38/109/10 37/110/14
