# Blender v2.69 (sub 0) OBJ File: 'pyramid_halfheight_connected_t.blend'
# www.blender.org
o Cone
v 0.500000 -0.500000 -0.500000
v 0.000000 0.000000 0.000000
v 0.500000 -0.500000 0.500000
v -0.500000 -0.500000 0.500000
v -0.500000 -0.500000 -0.500000
v 0.000000 0.000000 -0.500000
v -0.000000 0.000000 0.500000
v -0.500000 0.000000 -0.000000
vt 0.500000 0.333333
vt 0.500000 0.500000
vt 0.375000 0.500000
vt 0.250000 0.333333
vt 0.125000 0.500000
vt 0.000000 0.333333
vt 0.250000 0.500000
vt 0.000000 0.500000
vt 0.250000 0.000000
vt 0.500000 0.000000
vt 0.625000 0.500000
vt 0.750000 0.333333
vt 0.750000 0.500000
vt 1.000000 0.333333
vt 0.875000 0.500000
vn 0.000000 0.707107 -0.707107
vn 0.707107 0.707107 0.000000
vn 0.707107 0.707107 0.000001
vn 0.000000 -1.000000 -0.000000
vn 0.000001 0.000000 -1.000000
vn -0.707107 0.707107 -0.000001
vn -0.707107 0.707107 -0.000000
vn -0.000001 0.000000 1.000000
vn -0.000000 0.707107 0.707107
vn -1.000000 0.000000 -0.000001
s off
f 5/1/1 8/2/1 2/3/1
f 1/4/2 2/5/2 3/6/2
f 2/5/2 1/4/2 6/7/2
f 3/6/3 2/5/3 7/8/3
f 1/4/4 3/9/4 4/10/4 5/1/4
f 1/4/5 5/1/5 6/3/5
f 5/1/6 2/11/6 6/2/6
f 4/12/7 7/13/7 2/11/7
f 4/12/8 3/14/8 7/15/8
f 4/12/9 2/15/9 8/13/9
f 5/1/10 4/12/10 8/11/10
