# Blender v2.69 (sub 0) OBJ File: 'pyramid_halfheight_connected_corner.blend'
# www.blender.org
o Cone
v -0.500000 -0.500000 -0.500000
v 0.000000 0.000000 0.000000
v 0.500000 -0.500000 -0.500000
v 0.500000 -0.500000 0.500000
v -0.500000 -0.500000 0.500000
v -0.500000 0.000000 0.000000
v 0.000000 0.000000 0.500000
vt 0.750000 0.333333
vt 0.750000 0.500000
vt 0.625000 0.500000
vt 0.000000 0.333333
vt 0.250000 0.333333
vt 0.125000 0.500000
vt 0.000000 0.500000
vt 0.500000 0.333333
vt 0.250000 0.000000
vt 0.500000 0.000000
vt 0.875000 0.500000
vt 0.500000 0.500000
vt 0.375000 0.500000
vt 1.000000 0.333333
vn -0.707107 0.707107 0.000000
vn 0.707107 0.707107 0.000000
vn 0.000000 -1.000000 0.000000
vn -1.000000 0.000000 0.000000
vn 0.000000 0.707107 0.707107
vn -0.000000 0.707107 -0.707107
vn 0.000000 0.000000 1.000000
s off
f 5/1/1 7/2/1 2/3/1
f 4/4/2 3/5/2 2/6/2 7/7/2
f 1/8/3 3/5/3 4/9/3 5/10/3
f 1/8/4 5/1/4 6/3/4
f 5/1/5 2/11/5 6/2/5
f 1/8/6 6/12/6 2/13/6 3/5/6
f 5/1/7 4/14/7 7/11/7
