# Blender v2.69 (sub 0) OBJ File: 'pyramid_connected_t.blend'
# www.blender.org
o Cone
v 0.500000 -0.500000 -0.500000
v 0.000000 0.500000 0.000000
v 0.500000 -0.500000 0.500000
v -0.500000 -0.500000 0.500000
v -0.500000 -0.500000 -0.500000
v 0.000000 0.500000 -0.500000
v -0.000000 0.500000 0.500000
v -0.500000 0.500000 -0.000000
vt 0.500000 0.333333
vt 0.500000 0.666667
vt 0.375000 0.666667
vt 0.250000 0.333333
vt 0.125000 0.666667
vt 0.000000 0.333333
vt 0.250000 0.666667
vt 0.000000 0.666667
vt 0.250000 0.000000
vt 0.500000 0.000000
vt 0.625000 0.666667
vt 0.750000 0.333333
vt 0.750000 0.666667
vt 1.000000 0.333333
vt 0.875000 0.666667
vn 0.000001 0.447214 -0.894427
vn 0.894427 0.447214 0.000001
vn 0.000000 -1.000000 -0.000000
vn 0.000001 0.000000 -1.000000
vn -0.894427 0.447214 -0.000001
vn -0.000001 0.000000 1.000000
vn -0.000001 0.447214 0.894427
vn -1.000000 0.000000 -0.000001
s off
f 5/1/1 8/2/1 2/3/1
f 1/4/2 2/5/2 3/6/2
f 2/5/2 1/4/2 6/7/2
f 3/6/2 2/5/2 7/8/2
f 1/4/3 3/9/3 4/10/3 5/1/3
f 1/4/4 5/1/4 6/3/4
f 5/1/5 2/11/5 6/2/5
f 4/12/5 7/13/5 2/11/5
f 4/12/6 3/14/6 7/15/6
f 4/12/7 2/15/7 8/13/7
f 5/1/8 4/12/8 8/11/8
