# Blender v2.76 (sub 0) OBJ File: ''
# www.blender.org
mtllib simplyslopes_slopeinsidecorner2.mtl
o diagonal_Plane
v -0.500000 -0.500000 -0.500000
v -0.500000 0.500000 0.500000
v 0.500000 0.500000 -0.500000
vt 1.000000 1.000000
vt 0.000000 1.000000
vt 0.500000 0.000000
vn -0.577400 0.577400 -0.577400
usemtl Material.003
s off
f 2/1/1 3/2/1 1/3/1
o Front_Plane.001
v 0.500000 -0.500000 -0.500000
v -0.496217 -0.500000 -0.500000
v 0.500000 0.493942 -0.500000
v -0.500000 -0.500000 -0.500000
v 0.500000 0.500000 -0.500000
vt 0.000000 0.000000
vt 0.996217 0.000000
vt 0.000000 0.993942
vn 0.000000 0.000000 -1.000000
usemtl None.002
s off
f 4/4/2 5/5/2 6/6/2
l 6 8
l 5 7
o left_Plane.001
v 0.500000 0.500000 0.500000
v 0.500000 -0.500000 0.500000
v 0.500000 -0.500000 -0.500000
v 0.500000 0.500000 -0.500000
vt 0.000000 0.000000
vt 1.000000 0.000000
vt 1.000000 1.000000
vt 0.000000 1.000000
vn 1.000000 -0.000000 0.000000
usemtl None.002
s 1
f 9/7/3 10/8/3 11/9/3 12/10/3
o Top_Plane.002
v -0.500000 0.500000 0.500000
v 0.500000 0.500000 0.500000
v 0.500000 0.500000 -0.500000
vt 1.000000 0.000000
vt 1.000000 1.000000
vt -0.000000 1.000000
vn 0.000000 1.000000 0.000000
usemtl None.002
s off
f 13/11/4 14/12/4 15/13/4
o Bottom_Plane.002
v -0.500000 -0.500000 0.500000
v -0.500000 -0.500000 -0.500000
v 0.500000 -0.500000 -0.500000
v 0.500000 -0.500000 0.500000
vt 0.000000 0.000000
vt 1.000000 0.000000
vt 1.000000 1.000000
vt 0.000000 1.000000
vn 0.000000 -1.000000 -0.000000
usemtl None.002
s 1
f 16/14/5 17/15/5 18/16/5 19/17/5
o back_Plane.001
v 0.500000 0.500000 0.500000
v -0.500000 0.500000 0.500000
v -0.500000 -0.500000 0.500000
v 0.500000 -0.500000 0.500000
vt 0.000000 0.000000
vt 1.000000 0.000000
vt 1.000000 1.000000
vt 0.000000 1.000000
vn 0.000000 -0.000000 1.000000
usemtl Material.003
s 1
f 20/18/6 21/19/6 22/20/6 23/21/6
o right_Plane.001
v -0.500000 0.500000 0.500000
v -0.500000 -0.500000 -0.500000
v -0.500000 -0.500000 0.500000
vt 1.000000 0.000000
vt 1.000000 1.000000
vt 0.000000 0.000000
vn -1.000000 0.000000 0.000000
usemtl None.002
s off
f 26/22/7 24/23/7 25/24/7
