# Blender v2.79 (sub 0) OBJ File: 'dragon_nest.blend'
# www.blender.org
mtllib draconis_dragon_egg.mtl
o Cube
v -0.189000 -0.513900 -0.189000
v 0.189000 -0.513900 -0.189000
v 0.189000 -0.513900 0.189000
v -0.189000 -0.513900 0.189000
v -0.189000 0.147600 -0.189000
v 0.189000 0.147600 -0.189000
v 0.189000 0.147600 0.189000
v -0.189000 0.147600 0.189000
v -0.236250 -0.428850 -0.236250
v 0.236250 -0.428850 -0.236250
v 0.236250 -0.428850 0.236250
v -0.236250 -0.428850 0.236250
v -0.236250 -0.050850 -0.236250
v 0.236250 -0.050850 -0.236249
v 0.236250 -0.050850 0.236250
v -0.236250 -0.050850 0.236250
vt 0.562500 0.625000
vt 0.437500 0.625000
vt 0.437500 0.500000
vt 0.562500 0.500000
vt 0.437500 0.625000
vt 0.437500 0.500000
vt 0.562500 0.500000
vt 0.562500 0.625000
vt 0.437500 0.500000
vt 0.437500 0.718750
vt 0.312500 0.718750
vt 0.312500 0.500000
vt 0.437500 0.500000
vt 0.437500 0.718750
vt 0.312500 0.718750
vt 0.312500 0.500000
vt 0.437500 0.718750
vt 0.312500 0.718750
vt 0.312500 0.500000
vt 0.312500 0.718750
vt 0.312500 0.500000
vt 0.437500 0.500000
vt 0.437500 0.718750
vt 0.312500 0.656250
vt 0.156250 0.656250
vt 0.156250 0.500000
vt 0.312500 0.500000
vt 0.156250 0.656250
vt 0.156250 0.500000
vt 0.312500 0.500000
vt 0.312500 0.656250
vt 0.156250 0.500000
vt 0.156250 0.625000
vt -0.000000 0.625000
vt -0.000000 0.500000
vt 0.156250 0.500000
vt 0.156250 0.625000
vt -0.000000 0.625000
vt -0.000000 0.500000
vt 0.156250 0.625000
vt -0.000000 0.625000
vt -0.000000 0.500000
vt -0.000000 0.625000
vt -0.000000 0.500000
vt 0.156250 0.500000
vt 0.156250 0.625000
vn 0.0000 -1.0000 -0.0000
vn 0.0000 1.0000 -0.0000
vn 0.0000 0.0000 -1.0000
vn 1.0000 -0.0000 0.0000
vn -0.0000 -0.0000 1.0000
vn -1.0000 0.0000 -0.0000
usemtl Material
s off
f 1/1/1 2/2/1 3/3/1 4/4/1
f 5/5/2 8/6/2 7/7/2 6/8/2
f 1/9/3 5/10/3 6/11/3 2/12/3
f 2/13/4 6/14/4 7/15/4 3/16/4
f 3/3/5 7/17/5 8/18/5 4/19/5
f 5/20/6 1/21/6 4/22/6 8/23/6
f 9/24/1 10/25/1 11/26/1 12/27/1
f 13/28/2 16/29/2 15/30/2 14/31/2
f 9/32/3 13/33/3 14/34/3 10/35/3
f 10/36/4 14/37/4 15/38/4 11/39/4
f 11/26/5 15/40/5 16/41/5 12/42/5
f 13/43/6 9/44/6 12/45/6 16/46/6
