# Blender v2.79 (sub 0) OBJ File: 'dragon_nest.blend'
# www.blender.org
mtllib draconis_dragon_nest.mtl
o Cube
v 0.504000 -0.501202 -0.504000
v 0.504000 -0.501202 0.504000
v 0.378000 -0.501202 0.504000
v 0.378000 -0.501202 -0.504000
v 0.504000 -0.249202 -0.504000
v 0.504000 -0.249202 0.504000
v 0.378000 -0.249202 0.504000
v 0.378000 -0.249202 -0.504000
v -0.504000 -0.438202 -0.504000
v -0.504000 -0.438202 0.504000
v 0.504000 -0.438202 0.504000
v 0.504000 -0.438202 -0.504000
v -0.504000 -0.501202 -0.504000
v -0.504000 -0.501202 0.504000
v 0.504000 -0.501202 0.504000
v 0.504000 -0.501202 -0.504000
v 0.504000 -0.501202 0.504000
v -0.504000 -0.501202 0.504000
v -0.504000 -0.501202 0.378000
v 0.504000 -0.501202 0.378000
v 0.504000 -0.249202 0.504000
v -0.504000 -0.249202 0.504000
v -0.504000 -0.249202 0.378000
v 0.504000 -0.249202 0.378000
v -0.504000 -0.501202 0.504000
v -0.504000 -0.501202 -0.504000
v -0.378000 -0.501202 -0.504000
v -0.378000 -0.501202 0.504000
v -0.504000 -0.249202 0.504000
v -0.504000 -0.249202 -0.504000
v -0.378000 -0.249202 -0.504000
v -0.378000 -0.249202 0.504000
v -0.504000 -0.501202 -0.504000
v 0.504000 -0.501202 -0.504000
v 0.504000 -0.501202 -0.378000
v -0.504000 -0.501202 -0.378000
v -0.504000 -0.249202 -0.504000
v 0.504000 -0.249202 -0.504000
v 0.504000 -0.249202 -0.378000
v -0.504000 -0.249202 -0.378000
v -0.189000 -0.406702 -0.189000
v 0.189000 -0.406702 -0.189000
v 0.189000 -0.406702 0.189000
v -0.189000 -0.406702 0.189000
v -0.189000 0.254798 -0.189000
v 0.189000 0.254798 -0.189000
v 0.189000 0.254798 0.189000
v -0.189000 0.254798 0.189000
v -0.236250 -0.321652 -0.236250
v 0.236250 -0.321652 -0.236250
v 0.236250 -0.321652 0.236250
v -0.236250 -0.321652 0.236250
v -0.236250 0.056348 -0.236250
v 0.236250 0.056348 -0.236249
v 0.236250 0.056348 0.236250
v -0.236250 0.056348 0.236250
vt 0.500000 0.875000
vt 0.000000 0.875000
vt 0.000000 0.812500
vt 0.500000 0.812500
vt 0.000000 0.875000
vt 0.000000 0.812500
vt 0.500000 0.812500
vt 0.500000 0.875000
vt 0.500000 1.000000
vt 0.000000 1.000000
vt 0.500000 0.875000
vt 0.500000 1.000000
vt 0.500000 1.000000
vt 0.500000 0.875000
vt 0.000000 1.000000
vt 0.000000 0.875000
vt 0.500000 0.875000
vt 0.500000 1.000000
vt 0.000000 0.500000
vt 0.000000 0.000000
vt 0.500000 0.000000
vt 0.500000 0.500000
vt 0.500000 0.500000
vt 0.000000 0.500000
vt 0.000000 0.000000
vt 0.500000 0.000000
vt 0.500000 0.875000
vt 0.000000 0.875000
vt 0.000000 0.812500
vt 0.500000 0.812500
vt 0.000000 0.875000
vt 0.000000 0.812500
vt 0.500000 0.812500
vt 0.500000 0.875000
vt 0.500000 1.000000
vt 0.000000 1.000000
vt 0.562500 0.875000
vt 0.562500 1.000000
vt 0.500000 1.000000
vt 0.500000 0.875000
vt 0.000000 1.000000
vt 0.000000 0.875000
vt 0.562500 0.875000
vt 0.562500 1.000000
vt 0.500000 0.875000
vt 0.000000 0.875000
vt 0.000000 0.812500
vt 0.500000 0.812500
vt 0.000000 0.875000
vt 0.000000 0.812500
vt 0.500000 0.812500
vt 0.500000 0.875000
vt 0.500000 1.000000
vt 0.000000 1.000000
vt 0.500000 0.875000
vt 0.500000 1.000000
vt 0.500000 1.000000
vt 0.500000 0.875000
vt 0.000000 1.000000
vt 0.000000 0.875000
vt 0.500000 0.875000
vt 0.500000 1.000000
vt 0.500000 0.875000
vt 0.000000 0.875000
vt 0.000000 0.812500
vt 0.500000 0.812500
vt 0.000000 0.875000
vt 0.000000 0.812500
vt 0.500000 0.812500
vt 0.500000 0.875000
vt 0.500000 1.000000
vt 0.000000 1.000000
vt 0.562500 0.875000
vt 0.562500 1.000000
vt 0.500000 1.000000
vt 0.500000 0.875000
vt 0.000000 1.000000
vt 0.000000 0.875000
vt 0.562500 0.875000
vt 0.562500 1.000000
vt 0.562500 0.625000
vt 0.437500 0.625000
vt 0.437500 0.500000
vt 0.562500 0.500000
vt 0.437500 0.625000
vt 0.437500 0.500000
vt 0.562500 0.500000
vt 0.562500 0.625000
vt 0.437500 0.500000
vt 0.437500 0.718750
vt 0.312500 0.718750
vt 0.312500 0.500000
vt 0.437500 0.500000
vt 0.437500 0.718750
vt 0.312500 0.718750
vt 0.312500 0.500000
vt 0.437500 0.718750
vt 0.312500 0.718750
vt 0.312500 0.500000
vt 0.312500 0.718750
vt 0.312500 0.500000
vt 0.437500 0.500000
vt 0.437500 0.718750
vt 0.312500 0.656250
vt 0.156250 0.656250
vt 0.156250 0.500000
vt 0.312500 0.500000
vt 0.156250 0.656250
vt 0.156250 0.500000
vt 0.312500 0.500000
vt 0.312500 0.656250
vt 0.156250 0.500000
vt 0.156250 0.625000
vt -0.000000 0.625000
vt -0.000000 0.500000
vt 0.156250 0.500000
vt 0.156250 0.625000
vt -0.000000 0.625000
vt -0.000000 0.500000
vt 0.156250 0.625000
vt -0.000000 0.625000
vt -0.000000 0.500000
vt -0.000000 0.625000
vt -0.000000 0.500000
vt 0.156250 0.500000
vt 0.156250 0.625000
vn 0.0000 -1.0000 0.0000
vn 0.0000 1.0000 0.0000
vn 1.0000 -0.0000 0.0000
vn -0.0000 -0.0000 1.0000
vn -1.0000 -0.0000 -0.0000
vn 0.0000 0.0000 -1.0000
usemtl Material
s off
f 1/1/1 2/2/1 3/3/1 4/4/1
f 5/5/2 8/6/2 7/7/2 6/8/2
f 1/1/3 5/9/3 6/10/3 2/2/3
f 2/11/4 6/12/4 7/13/4 3/14/4
f 3/14/5 7/13/5 8/15/5 4/16/5
f 5/9/6 1/1/6 4/17/6 8/18/6
f 12/19/2 9/20/2 10/21/2 11/22/2
f 16/23/1 15/24/1 14/25/1 13/26/1
f 17/27/1 18/28/1 19/29/1 20/30/1
f 21/31/2 24/32/2 23/33/2 22/34/2
f 17/27/4 21/35/4 22/36/4 18/28/4
f 18/37/5 22/38/5 23/39/5 19/40/5
f 19/40/6 23/39/6 24/41/6 20/42/6
f 21/35/3 17/27/3 20/43/3 24/44/3
f 25/45/1 26/46/1 27/47/1 28/48/1
f 29/49/2 32/50/2 31/51/2 30/52/2
f 25/45/5 29/53/5 30/54/5 26/46/5
f 26/55/6 30/56/6 31/57/6 27/58/6
f 27/58/3 31/57/3 32/59/3 28/60/3
f 29/53/4 25/45/4 28/61/4 32/62/4
f 33/63/1 34/64/1 35/65/1 36/66/1
f 37/67/2 40/68/2 39/69/2 38/70/2
f 33/63/6 37/71/6 38/72/6 34/64/6
f 34/73/3 38/74/3 39/75/3 35/76/3
f 35/76/4 39/75/4 40/77/4 36/78/4
f 37/71/5 33/63/5 36/79/5 40/80/5
f 41/81/1 42/82/1 43/83/1 44/84/1
f 45/85/2 48/86/2 47/87/2 46/88/2
f 41/89/6 45/90/6 46/91/6 42/92/6
f 42/93/3 46/94/3 47/95/3 43/96/3
f 43/83/4 47/97/4 48/98/4 44/99/4
f 45/100/5 41/101/5 44/102/5 48/103/5
f 49/104/1 50/105/1 51/106/1 52/107/1
f 53/108/2 56/109/2 55/110/2 54/111/2
f 49/112/6 53/113/6 54/114/6 50/115/6
f 50/116/3 54/117/3 55/118/3 51/119/3
f 51/106/4 55/120/4 56/121/4 52/122/4
f 53/123/5 49/124/5 52/125/5 56/126/5
